# xmcd
#
# Track frame offsets: 
#        150
#        15773
#        30485
#        47415
#        59740
#        71215
#        82363
#        95693
#        106565
#        115738
#        127388
#        141660
#        152590
#        163763
#
# Disc length: 2308 seconds
#
# Revision: 0
# Processed by: cddbd v1.5.2PL0 Copyright (c) Steve Scherf et al.
# Submitted via: ExactAudioCopy v0.99pb3
#
DISCID=c309020e
DTITLE=Rockin' Louie and The Mamma Jammers - It Will Stand
DYEAR=1980
DGENRE=Blues
TTITLE0=Club Savoy
TTITLE1=Real Gone Lover
TTITLE2=Don't Buy Me No Beer
TTITLE3=Let's Go, Let's Go, Let's Go
TTITLE4=Boogie Woogie Country Girl
TTITLE5=Big Ten Inch Record
TTITLE6=Reet Petite And Gone
TTITLE7=It Will Stand
TTITLE8=Joops Jump
TTITLE9=I Know You're Jivin' Me
TTITLE10=Rock and Roll Man
TTITLE11=Troubles Troubles
TTITLE12=Lovin' Machine
TTITLE13=Ready To Go
EXTD=
EXTT0=
EXTT1=
EXTT2=
EXTT3=
EXTT4=
EXTT5=
EXTT6=
EXTT7=
EXTT8=
EXTT9=
EXTT10=
EXTT11=
EXTT12=
EXTT13=
PLAYORDER=
